# xmcd
#
# Track frame offsets:
#	182
#	12677
#	28825
#	40152
#	58157
#	72440
#	90817
#	106435
#	117355
#	135107
#	152175
#	165432
#	186517
#	199232
#	217025
#	229072
#	241315
#
# Disc length: 3381 seconds
#
# Revision: 1
# Processed by: cddbd v1.4PL0 Copyright (c) Steve Scherf et al.
# Submitted via: audiograbber 1.80.04
#
DISCID=ee0d3311
DTITLE=Daniel Guichard - Enregistrement Public
DYEAR=2001
DGENRE=Chanson
TTITLE0=Faire la fête
TTITLE1=J'aimerai
TTITLE2=L'enfer
TTITLE3=Le droit de vivre 
TTITLE4=La nuit 
TTITLE5=L'accordéoniste 
TTITLE6=Je viens pas te parler d'amour 
TTITLE7=Je n'fais rien 
TTITLE8=Chanson pour Anna 
TTITLE9=Le gitan 
TTITLE10=Je t'aime tu vois 
TTITLE11=Mon vieux 
TTITLE12=Faut pas pleurer comme ça 
TTITLE13=Ce n'est pas à DIeu 
TTITLE14=La tendresse 
TTITLE15=Gamberge 
TTITLE16=Allez j'me sauve 
EXTD=
EXTT0=
EXTT1=
EXTT2=
EXTT3=
EXTT4=
EXTT5=
EXTT6=
EXTT7=
EXTT8=
EXTT9=
EXTT10=
EXTT11=
EXTT12=
EXTT13=
EXTT14=
EXTT15=
EXTT16=
PLAYORDER=
